# xmcd CD database file
# Generated: Wed Nov 14 11:55:11 2001 by WSPse's MP3c
#
# Track frame offsets:
#       150
#       11182
#       29462
#       47015
#       71260
#       87475
#       99012
#       112725
#       127442
#       141827
#
# Disc length: 2096 seconds
#
# Revision: 2
# Processed by: cddbd v1.4PL0 Copyright (c) Steve Scherf et al.
# Submitted via: MP3c 0.27
#   WSPse mp3c-0.27 (NLS) - ENGLISH (Nov  5 2001)
#
DISCID=83082e0a
DTITLE=Reba McEntire - Merry Christmas To You
DYEAR=1900
DGENRE=
TTITLE0=Away In A Manger
TTITLE1=On This Day
TTITLE2=O Holy Night
TTITLE3=The Christmas Guest
TTITLE4=Silent Night
TTITLE5=Happy Birthday Jesus (I'll Open This One For You)
TTITLE6=White Christmas
TTITLE7=I'll Be Home For Christmas
TTITLE8=A Christmas Letter
TTITLE9=The Christmas Song (Chestnuts Roasting On An Open Fire)
EXTD=
EXTT0=
EXTT1=
EXTT2=
EXTT3=
EXTT4=
EXTT5=
EXTT6=
EXTT7=
EXTT8=
EXTT9=
PLAYORDER=
